# xmcd
#
# Track frame offsets:
#	150
#	19591
#	32851
#	52704
#	65607
#	78373
#	97088
#	115767
#	131180
#	169110
#	185756
#	203251
#	224974
#	243173
#	265637
#	276719
#	295492
#	311224
#	333416
#
# Disc length: 4663 seconds
#
# Revision: 1
# Processed by: cddbd v1.4PL0 Copyright (c) Steve Scherf et al.
# Submitted via: audiograbber 1.82.01
#
DISCID=26123513
DTITLE=Оптимальный Вариант - Легенды Русского Рока
DYEAR=2001
DGENRE=R&B
TTITLE0=Блюз рыжих волос
TTITLE1=Налегке
TTITLE2=Певчий дрозд
TTITLE3=Порука
TTITLE4=Архангельск
TTITLE5=Повод качать
TTITLE6=Участь
TTITLE7=Ржавым серпом по пальцам
TTITLE8=Эй, Мельник!
TTITLE9=Пчела (Блюз на абрикосовых косточках)
TTITLE10=Быдло
TTITLE11=Животное придет
TTITLE12=Разноглазый репей
TTITLE13=Грейпфрут
TTITLE14=Вальс (Ты приходишь как вальс)
TTITLE15=Тверской бульвар
TTITLE16=Улица яблочных лет
TTITLE17=Что-то сбылось
TTITLE18=Токи Фуко
EXTD=
EXTT0=
EXTT1=
EXTT2=
EXTT3=
EXTT4=
EXTT5=
EXTT6=
EXTT7=
EXTT8=
EXTT9=
EXTT10=
EXTT11=
EXTT12=
EXTT13=
EXTT14=
EXTT15=
EXTT16=
EXTT17=
EXTT18=
PLAYORDER=
